<svg width="46" height="47" viewBox="0 0 46 47" fill="none" xmlns="http://www.w3.org/2000/svg">
<path d="M24.15 5.10001C23.845 5.10001 23.5525 5.22117 23.3368 5.43683C23.1212 5.6525 23 5.94501 23 6.25001V12.23C23 15.3971 25.1321 18.0628 28.037 18.877C27.531 25.179 25.7094 29.8825 24.2167 32.7828C24.6399 33.2796 25.0378 33.6499 25.3483 33.9098C26.542 34.908 27.6 36.5341 27.6 38.5627C27.6015 39.7636 27.2178 40.9334 26.5052 41.9H39.1C40.015 41.9 40.8925 41.5365 41.5395 40.8895C42.1865 40.2425 42.55 39.365 42.55 38.45V37.7439C42.55 36.9435 42.2763 36.2052 41.8554 35.6003C40.6134 33.8132 37.0967 28.0333 36.3607 18.8747C37.8104 18.4683 39.0875 17.5991 39.9973 16.3994C40.9071 15.1998 41.3997 13.7356 41.4 12.23V6.25001C41.4 5.94501 41.2788 5.6525 41.0632 5.43683C40.8475 5.22117 40.555 5.10001 40.25 5.10001H38.525C38.0675 5.10001 37.6287 5.28175 37.3052 5.60525C36.9817 5.92875 36.8 6.36751 36.8 6.82501V8.55001C36.8003 8.70103 36.7709 8.85063 36.7133 8.99027C36.6558 9.12991 36.5714 9.25685 36.4648 9.36385C36.2496 9.57995 35.9573 9.7017 35.6523 9.70231C35.3473 9.70292 35.0546 9.58234 34.8385 9.36711C34.6224 9.15187 34.5006 8.85961 34.5 8.55461V8.55001L34.4908 6.81581C34.4884 6.3599 34.3056 5.9235 33.9823 5.60199C33.6591 5.28048 33.2217 5.1 32.7658 5.10001H31.6342C31.1783 5.1 30.7409 5.28048 30.4177 5.60199C30.0944 5.9235 29.9116 6.3599 29.9092 6.81581L29.9 8.55461C29.8994 8.85961 29.7776 9.15187 29.5615 9.36711C29.3454 9.58234 29.0527 9.70292 28.7477 9.70231C28.4427 9.7017 28.1504 9.57995 27.9352 9.36385C27.72 9.14775 27.5994 8.85501 27.6 8.55001V6.82501C27.6 6.36751 27.4183 5.92875 27.0948 5.60525C26.7713 5.28175 26.3325 5.10001 25.875 5.10001H24.15ZM14.95 12C13.618 12 12.3145 12.3856 11.1968 13.1101C10.0792 13.8347 9.19508 14.8672 8.65131 16.0832C8.10755 17.2991 7.92734 18.6464 8.13245 19.9625C8.33756 21.2786 8.91921 22.5072 9.8072 23.5H9.2C8.59 23.5 8.00499 23.7423 7.57365 24.1737C7.14232 24.605 6.9 25.19 6.9 25.8C6.9 26.41 7.14232 26.995 7.57365 27.4264C8.00499 27.8577 8.59 28.1 9.2 28.1H10.396C9.5404 32.2354 7.2841 34.6228 6.026 35.6739C5.2302 36.3409 4.6 37.3667 4.6 38.5627C4.6 40.405 6.095 41.9 7.9373 41.9H21.965C23.805 41.9 25.3 40.405 25.3 38.5627C25.3 37.3667 24.6698 36.3409 23.874 35.6739C22.6159 34.6228 20.3596 32.2354 19.504 28.1H20.7C21.31 28.1 21.895 27.8577 22.3263 27.4264C22.7577 26.995 23 26.41 23 25.8C23 25.19 22.7577 24.605 22.3263 24.1737C21.895 23.7423 21.31 23.5 20.7 23.5H20.0928C20.9808 22.5072 21.5624 21.2786 21.7675 19.9625C21.9727 18.6464 21.7924 17.2991 21.2487 16.0832C20.7049 14.8672 19.8208 13.8347 18.7032 13.1101C17.5855 12.3856 16.282 12 14.95 12Z" fill="white"/>
</svg>
